<svg id="_LOGO" data-name="# LOGO" xmlns="http://www.w3.org/2000/svg" width="146.188" height="48" viewBox="0 0 146.188 48">
    <defs>
        <style>
            .cls-2{fill:#e74e25}
        </style>
    </defs>
    <g id="그룹_45" data-name="그룹 45" transform="translate(-63.6 -51.229)">
        <g id="그룹_43" data-name="그룹 43" transform="translate(63.6 54.269)">
            <g id="그룹_42" data-name="그룹 42" transform="translate(62.625 30.392)">
                <g id="그룹_37" data-name="그룹 37" transform="translate(0 .001)">
                    <path id="패스_1" data-name="패스 1" class="cls-2" d="M451.553 274.548h-4.958v-1.356H445.4a2.879 2.879 0 0 1 .205 1.213v3.227h6.939v-4.442h-1.2a3.666 3.666 0 0 1 .209 1.358zm0 2.307h-4.961v-1.515h4.958z" transform="translate(-443.818 -266.765)"/>
                    <path id="패스_2" data-name="패스 2" class="cls-2" d="M444.7 234.984h-1.2a2.932 2.932 0 0 1 .208 1.214v1.07h-2.153v-1.925h-1.207a2.853 2.853 0 0 1 .21 1.195v.529h-3.4v-1.722h-1.192a2.864 2.864 0 0 1 .207 1.213v3.734h5.375v-2.184h2.155v2.447h.993v-5.569zm-4.14 4.5h-3.4v-1.6h3.4z" transform="translate(-435.967 -234.983)"/>
                </g>
                <g id="그룹_38" data-name="그룹 38" transform="translate(21.175 .001)">
                    <path id="패스_3" data-name="패스 3" class="cls-2" d="M577.46 274.548h-4.958v-1.356h-1.19a2.86 2.86 0 0 1 .206 1.213v3.227h6.936v-4.442h-1.204a3.645 3.645 0 0 1 .21 1.358zm0 2.307h-4.96v-1.515h4.958z" transform="translate(-569.724 -266.765)"/>
                    <path id="패스_4" data-name="패스 4" class="cls-2" d="M570.606 234.984h-1.2a2.916 2.916 0 0 1 .207 1.214v1.07h-2.151v-1.925h-1.206a2.905 2.905 0 0 1 .209 1.195v.529h-3.4v-1.722h-1.191a2.86 2.86 0 0 1 .206 1.213v3.734h5.373v-2.184h2.155v2.447h.994v-5.569zm-4.141 4.5h-3.4v-1.6h3.4z" transform="translate(-561.876 -234.983)"/>
                </g>
                <path id="패스_5" data-name="패스 5" class="cls-2" d="M504.165 238.032a2.826 2.826 0 0 1 .2 1.164v3.335h7.218v-4.5zm1.185.849h5.25v2.811h-5.25z" transform="translate(-492.695 -237.519)"/>
                <path id="패스_6" data-name="패스 6" class="cls-2" d="M495.632 272.255v.836h4.7v3.888h1.031v-3.888h4.765v-.836z" transform="translate(-485.597 -265.986)"/>
                <path id="패스_7" data-name="패스 7" class="cls-2" d="M668.523 242.224h.991v-7.174h-1.2a2.922 2.922 0 0 1 .209 1.23z" transform="translate(-629.235 -235.038)"/>
                <path id="패스_8" data-name="패스 8" class="cls-2" d="M634.572 280.43v-2.816h-1.184a2.866 2.866 0 0 1 .2 1.159v2.508h7v-.852z" transform="translate(-600.186 -270.444)"/>
                <path id="패스_9" data-name="패스 9" class="cls-2" d="M814.543 238.168a10.82 10.82 0 0 1-.075 1.255 27.834 27.834 0 0 1-.3 1.623c.148.017.309.033.464.042s.309.036.473.043a18.547 18.547 0 0 0 .318-1.882c.057-.681.085-1.319.086-1.947h-5.569v.827h4.6z" transform="translate(-747.049 -236.911)"/>
                <path id="패스_10" data-name="패스 10" class="cls-2" d="M853.362 237.3v-2.32h-1.228a2.98 2.98 0 0 1 .214 1.254v4.864h1.011v-2.932h1.741v-.866z" transform="translate(-782.143 -234.979)"/>
                <path id="패스_11" data-name="패스 11" class="cls-2" d="M812.174 253.315a22.729 22.729 0 0 1-4.174.356v-2.146h-1.149a2.8 2.8 0 0 1 .2 1.173v.974h-2.62v.822a49.387 49.387 0 0 0 7.831-.365 40.758 40.758 0 0 1-.088-.814z" transform="translate(-742.464 -248.741)"/>
                <g id="그룹_39" data-name="그룹 39" transform="translate(64.622 6.43)">
                    <path id="패스_12" data-name="패스 12" class="cls-2" d="M823.4 273.212h-.038c-1.841 0-3.156 1.05-3.156 2.35s1.29 2.35 3.156 2.35h.038c1.868 0 3.155-1.053 3.155-2.35s-1.311-2.35-3.155-2.35zm-.006 3.9h-.024c-1.256 0-2.12-.7-2.12-1.556s.884-1.556 2.12-1.556h.024c1.237 0 2.12.7 2.12 1.556s-.862 1.556-2.114 1.556z" transform="translate(-820.21 -273.212)"/>
                </g>
                <g id="그룹_40" data-name="그룹 40" transform="translate(31.66 .336)">
                    <path id="패스_13" data-name="패스 13" class="cls-2" d="M627.178 236.979h-.36a2.715 2.715 0 0 0 0 5.425h.36a2.715 2.715 0 0 0 0-5.425zm-.057 4.576h-.247a1.864 1.864 0 0 1 0-3.725h.247a1.864 1.864 0 0 1 0 3.725z" transform="translate(-624.22 -236.979)"/>
                </g>
                <path id="패스_14" data-name="패스 14" class="cls-2" d="M916.4 237.3v-2.32h-1.226a2.98 2.98 0 0 1 .215 1.254v4.866h1.011v-2.932h1.744v-.868z" transform="translate(-834.58 -234.979)"/>
                <g id="그룹_41" data-name="그룹 41" transform="translate(75.459 6.43)">
                    <path id="패스_15" data-name="패스 15" class="cls-2" d="M887.842 273.212h-.042c-1.841 0-3.158 1.05-3.158 2.35s1.29 2.35 3.158 2.35h.037c1.868 0 3.158-1.053 3.158-2.35s-1.313-2.35-3.153-2.35zm-.006 3.9h-.024c-1.253 0-2.12-.7-2.12-1.556s.885-1.556 2.12-1.556h.024c1.236 0 2.119.7 2.119 1.556s-.865 1.556-2.119 1.556z" transform="translate(-884.647 -273.212)"/>
                </g>
                <path id="패스_16" data-name="패스 16" class="cls-2" d="M876.818 240.045a9.525 9.525 0 0 0 1.205-1.913q.19-.4.343-.829h-5.177v.829h3.916a8.634 8.634 0 0 1-4.322 3.938l.42.711a9.431 9.431 0 0 0 3.069-2.121 9.435 9.435 0 0 0 2.432 1.818l.416-.7a8.666 8.666 0 0 1-2.302-1.733z" transform="translate(-799.32 -236.911)"/>
            </g>
            <path id="패스_17" data-name="패스 17" class="cls-2" d="M101.821 94.174c-.489-.5-1.316-1.355-2.363-2.439-1.1-1.143-2.488-2.575-4.085-4.221a6.562 6.562 0 0 0-2.6-1.89 39.909 39.909 0 0 0 5.5-5.778c.532-.639.952-1.143 1.2-1.4a4.2 4.2 0 0 1 3.189-1.221l.083-.005v-.775h-6.8v.765h.085c1.279.052 1.514.331 1.514.861 0 .946-2.876 3.789-5.186 6.073l-.03.03A6.539 6.539 0 0 1 89.485 86v-6.442c0-1.713.495-2.282 2.038-2.34h.085v-.766H84.69v.764h.085c1.332.042 2.053.394 2.053 2.127v13.534c0 1.353-.327 2.1-2.054 2.159h-.085v.764h6.918v-.76h-.084c-1.562-.06-2.038-.636-2.038-2.466v-5.7h.077c1.024 0 2.058.454 4.308 2.772.847.873 1.561 1.59 2.134 2.166 1.405 1.411 2.111 2.12 2.111 2.458 0 .318-.158.656-1.33.75l-.082.007v.773h7.7v-.767h-.083a3.291 3.291 0 0 1-2.499-.859zM112.6 74.132c3.272 0 5.752-2.484 6.939-3.964l.048-.06-.052-.056-.427-.456-.067-.072-.064.075a6.557 6.557 0 0 1-4.926 2.526c-.1 0-.2 0-.3-.008-3.8-.218-5.435-3.629-5.379-6.942h11.315v-.088c0-.154 0-.329-.012-.492-.02-.3-.039-.575-.072-.868a7.228 7.228 0 0 0-2.53-4.49 6.562 6.562 0 0 0-3.985-1.279c-4.787 0-7.292 4.152-7.292 8.253a8.611 8.611 0 0 0 1.961 5.636 6.325 6.325 0 0 0 4.843 2.285zm-3.23-12.98a3.826 3.826 0 0 1 3.418-2.225c.08 0 .161 0 .241.008 2.3.133 3.611 2.52 3.722 4.809 0 .023 0 .128.01.255v.008h-8.294a8.586 8.586 0 0 1 .902-2.855zm-12.022 12.98c3.268 0 5.75-2.484 6.938-3.964l.048-.06-.052-.055-.425-.456-.067-.072-.064.075a6.569 6.569 0 0 1-4.926 2.526c-.1 0-.2 0-.3-.008-3.8-.218-5.434-3.629-5.381-6.942h11.311v-.579l-.012-.172c-.015-.237-.03-.46-.061-.7a7.235 7.235 0 0 0-2.531-4.489 6.569 6.569 0 0 0-3.989-1.279c-4.783 0-7.286 4.152-7.286 8.253a8.614 8.614 0 0 0 1.959 5.636 6.322 6.322 0 0 0 4.838 2.286zm-3.234-12.98a3.842 3.842 0 0 1 3.423-2.224c.08 0 .16 0 .24.008 2.3.133 3.613 2.52 3.72 4.809v.053c0 .05.006.125.011.21h-8.3a8.615 8.615 0 0 1 .906-2.856zM89.8 73.556l.486-4.328.011-.1h-.7l-.018.064c-.764 2.692-1.373 3.051-3.391 3.051H81.52c-.822 0-1.114-.277-1.114-1.06V57.065c0-1.763.409-2.005 2.033-2.032h.087v-.762h-6.9v.763h.085c1.543.056 2.037.6 2.037 2.219v13.669c0 1.49-.42 1.945-1.8 1.945h-.325v.768h14.165zm21.753 5.895a8.707 8.707 0 0 0-5.7 2.115 8.07 8.07 0 0 0-2.679 6.288 8.233 8.233 0 0 0 2.446 5.938 8.564 8.564 0 0 0 6.052 2.4 8.237 8.237 0 0 0 8.232-8.417 8.152 8.152 0 0 0-8.355-8.325zm.578 15.607a5.5 5.5 0 0 1-4.411-2.479 10.32 10.32 0 0 1-1.83-6.079c0-3.2 2.335-5.91 5.1-5.91a5.515 5.515 0 0 1 4.352 2.4 9.576 9.576 0 0 1 1.837 5.786c-.005 3.878-2.625 6.281-5.052 6.281zm-29.365-8.872a7.684 7.684 0 0 1-1.8-.2 5.241 5.241 0 0 1-1.108-.409 5.947 5.947 0 0 1-.542-.288 12.2 12.2 0 0 1-2.388-1.954l-.9-.874.354-.484.731-1c.19-.267.369-.54.542-.8a8.554 8.554 0 0 1 1.853-2.225 3.538 3.538 0 0 1 2.413-.724h.131v-.766h-6.41v.768l.081.006.688.051a1.814 1.814 0 0 1 1.018.35c.191.251.083.634-.011.972l-.01.034a2.991 2.991 0 0 1-.378.771l-.059.1c-.292.49-.833 1.26-1.61 2.29l-1.226-1.213c-1.733-1.714-3.89-3.847-4.853-4.809-1.437-1.439-2.339-3.633-1.113-5.288a2.283 2.283 0 0 1 1.84-.883h.1c1.727.063 2.863 1.819 3.055 3.439a4.535 4.535 0 0 1 .015.5v.089h.772v-4.663H73.2v.141c0 .257-.087.4-.123.4a.846.846 0 0 1-.311-.134c-.058-.033-.115-.066-.172-.093a5.721 5.721 0 0 0-1.853-.566 5.551 5.551 0 0 0-.7-.045 4.108 4.108 0 0 0-3.437 1.636 5.3 5.3 0 0 0-.364 5.065 6.311 6.311 0 0 0 .887 1.487C64.7 78.235 62.709 81 64.012 83.9a5.2 5.2 0 0 0 4.688 3.126h.139a7.674 7.674 0 0 0 4.97-2.152l.075-.069-.078-.065a12.625 12.625 0 0 1-.278-.236l-.131-.114-.054-.047-.057.044a5.383 5.383 0 0 1-1.555.9 3.793 3.793 0 0 1-.962.123 5.107 5.107 0 0 1-4.212-2.521A3.8 3.8 0 0 1 66.446 79a4.436 4.436 0 0 1 1.241-1.485c.223.237.449.472.671.7l4.174 4.173.245.247c.232.234.452.455.647.657.111.115.235.234.368.353l.277.278a11.167 11.167 0 0 0 6.73 3.067s.522.057 1.152.057a5.816 5.816 0 0 0 1.544-.166l.064-.018v-.733l-.107.023a4.775 4.775 0 0 1-.686.033zm-13.924.754h-.137.218zm1.2-18.177h.046-.154zm11.91 18.193z" transform="translate(-63.6 -54.269)"/>
        </g>
        <g id="그룹_44" data-name="그룹 44" transform="translate(168.951 85.047)">
            <path id="패스_18" data-name="패스 18" class="cls-2" d="M692.5 247.8h-.772a24.032 24.032 0 0 1-1.112-2.167 8.33 8.33 0 0 1 0-6.193q.6-1.292 1.112-2.162h.772a12.911 12.911 0 0 0-1.112 2.773 9.558 9.558 0 0 0 0 4.975 12.909 12.909 0 0 0 1.112 2.774z" transform="translate(-690.018 -237.277)"/>
            <path id="패스_19" data-name="패스 19" class="cls-2" d="M718.536 245.94h-2.285v3.385h-1.019v-3.385h-2.378v3.271h-1.029v-3.271h-2.347v-.96h9.058zm-1-4.392a1.88 1.88 0 0 1-.916 1.6 4.57 4.57 0 0 1-2.6.629 4.626 4.626 0 0 1-2.609-.629 1.839 1.839 0 0 1-.005-3.2 5.67 5.67 0 0 1 5.213 0 1.883 1.883 0 0 1 .918 1.6zm-3.53-1.315a3.749 3.749 0 0 0-1.76.36 1 1 0 0 0 .01 1.9 4.359 4.359 0 0 0 3.484.006 1.064 1.064 0 0 0 .685-.932 1.1 1.1 0 0 0-.674-.966 3.6 3.6 0 0 0-1.744-.368z" transform="translate(-706.205 -238.975)"/>
            <path id="패스_20" data-name="패스 20" class="cls-2" d="M768.792 245.025a9.558 9.558 0 0 0 0-4.975 12.935 12.935 0 0 0-1.111-2.773h.772q.515.87 1.112 2.162a8.327 8.327 0 0 1 0 6.193 23.984 23.984 0 0 1-1.112 2.167h-.772a12.933 12.933 0 0 0 1.111-2.774z" transform="translate(-754.619 -237.277)"/>
        </g>
    </g>
</svg>
